<svg width="43" height="43" viewBox="0 0 43 43" fill="none" xmlns="http://www.w3.org/2000/svg">
<rect x="0.5" y="0.5" width="42" height="42" rx="7.5" stroke="white"/>
<path d="M12.5 29H11.36V17.22L9.22 19.5L8.52 18.76L11.46 15.66H12.5V29ZM19.8723 29.24C18.5657 29.24 17.479 28.9133 16.6123 28.26C15.759 27.5933 15.3323 26.7267 15.3323 25.66C15.3323 24.7933 15.6523 24.0533 16.2923 23.44C16.9323 22.8133 17.719 22.3733 18.6523 22.12C17.7723 21.88 17.0323 21.4933 16.4323 20.96C15.8457 20.4133 15.5523 19.7267 15.5523 18.9C15.5523 17.7933 15.979 16.9467 16.8323 16.36C17.6857 15.76 18.699 15.46 19.8723 15.46C21.019 15.46 22.0257 15.76 22.8923 16.36C23.759 16.9467 24.1923 17.7933 24.1923 18.9C24.1923 19.7267 23.8923 20.4133 23.2923 20.96C22.7057 21.4933 21.9723 21.88 21.0923 22.12C22.0257 22.3733 22.8057 22.8067 23.4323 23.42C24.0723 24.0333 24.3923 24.78 24.3923 25.66C24.3923 26.7267 23.959 27.5933 23.0923 28.26C22.239 28.9133 21.1657 29.24 19.8723 29.24ZM19.8723 21.64C20.1657 21.5867 20.4523 21.5133 20.7323 21.42C21.0123 21.3133 21.3457 21.1667 21.7323 20.98C22.119 20.78 22.4323 20.5133 22.6723 20.18C22.9123 19.8333 23.0323 19.4467 23.0323 19.02C23.0323 18.2467 22.7323 17.6333 22.1323 17.18C21.5323 16.7267 20.779 16.5 19.8723 16.5C18.9657 16.5 18.2123 16.7267 17.6123 17.18C17.0123 17.6333 16.7123 18.2467 16.7123 19.02C16.7123 19.4467 16.8323 19.8333 17.0723 20.18C17.3123 20.5133 17.6257 20.78 18.0123 20.98C18.399 21.18 18.7323 21.3267 19.0123 21.42C19.2923 21.5133 19.579 21.5867 19.8723 21.64ZM19.8723 28.2C20.779 28.2 21.5657 27.96 22.2323 27.48C22.9123 26.9867 23.2523 26.3533 23.2523 25.58C23.2523 25.1 23.119 24.6667 22.8523 24.28C22.5857 23.8933 22.2523 23.5933 21.8523 23.38C21.4523 23.1533 21.0857 22.98 20.7523 22.86C20.419 22.74 20.1257 22.6667 19.8723 22.64C19.619 22.6667 19.319 22.74 18.9723 22.86C18.639 22.98 18.2723 23.1533 17.8723 23.38C17.4857 23.5933 17.159 23.8933 16.8923 24.28C16.6257 24.6667 16.4923 25.1 16.4923 25.58C16.4923 26.3667 16.819 27 17.4723 27.48C18.139 27.96 18.939 28.2 19.8723 28.2ZM34.9181 22.68H30.9981V27.02H30.0981V22.68H26.1581V21.84H30.0981V17.62H30.9981V21.84H34.9181V22.68Z" fill="white"/>
</svg>
