<svg width="197" height="41" viewBox="0 0 197 41" fill="none" xmlns="http://www.w3.org/2000/svg">
<path fill-rule="evenodd" clip-rule="evenodd" d="M0.278234 32.232C5.87711 32.232 11.52 32.232 17.2947 32.232C17.5813 30.5028 17.4134 28.9031 17.4173 27.2436C16.1478 26.838 14.9067 27.0869 13.6908 27.0445C12.4013 26.999 11.1091 27.0345 9.81778 27.0345C8.59191 27.0345 7.36691 27.0345 5.9661 27.0345C5.806 20.852 5.98922 14.8655 5.85486 8.69462C3.9035 8.69462 2.09261 8.69462 0.338873 8.69462C-1.06194 3.59717 2.59081 0.232345 5.92422 0.0185262C6.36964 -0.0100407 6.81767 0.00294457 7.26439 0.00294457C67.8927 0.00251174 128.521 0.000780362 189.149 0.0150638C190.08 0.0154966 191.052 0.0765262 191.935 0.341852C194.546 1.12831 196.282 3.49805 196.362 6.20758C196.384 6.93733 196.366 7.66838 196.366 8.56564C194.263 8.75738 192.29 8.63965 190.326 8.66043C188.34 8.6812 186.353 8.66476 184.367 8.66476C182.386 8.66476 180.404 8.66476 178.462 8.66476C178.079 9.82561 178.001 30.3769 178.376 32.1904C184.264 32.1904 190.195 32.1904 196.075 32.1904C197.505 37.8393 193.272 41.0721 189.752 40.9098C189.455 40.8959 189.157 40.9094 188.859 40.9094C128.429 40.9094 67.9995 40.9098 7.56977 40.9037C6.77884 40.9037 5.96567 40.921 5.20135 40.757C1.38065 39.9346 -0.808036 36.2045 0.278234 32.232ZM48.5915 32.0917C48.626 31.4697 48.6792 30.943 48.6805 30.4154C48.6884 27.215 48.6801 24.0155 48.6897 20.816C48.6905 20.3672 48.7612 19.9188 48.8284 19.1306C49.4082 19.8024 49.7354 20.1616 50.0403 20.5377C52.8986 24.0688 55.7421 27.6115 58.621 31.1248C58.9735 31.555 59.4848 32.0874 59.9673 32.1359C61.3292 32.2731 62.7143 32.1839 64.0366 32.1839C64.4781 30.6686 64.4484 10.0052 64.041 8.78465C62.299 8.78465 60.5457 8.78465 58.6153 8.78465C58.6153 10.2706 58.6153 11.6379 58.6153 13.0052C58.6153 14.4327 58.6463 15.861 58.607 17.2876C58.5695 18.6311 58.7828 19.9941 58.3863 21.6241C57.8793 21.0277 57.5321 20.6386 57.2066 20.2317C54.3963 16.7258 51.5982 13.2112 48.7721 9.71827C48.4471 9.3166 47.9969 8.77167 47.5689 8.73791C46.0608 8.61758 44.5365 8.69116 42.9551 8.69116C42.9551 16.5981 42.9551 24.2986 42.9551 32.0913C44.8568 32.0917 46.6576 32.0917 48.5915 32.0917ZM36.2089 17.1954C33.0208 17.1954 29.9749 17.1954 26.8469 17.1954C26.8469 15.9792 26.8469 14.9798 26.8469 13.7847C30.8504 13.757 34.7427 13.7302 38.8125 13.702C38.8072 11.9222 39.0149 10.342 38.6986 8.77037C32.7014 8.77037 26.8657 8.77037 21.0522 8.77037C20.6805 10.6722 20.7808 31.0837 21.1455 32.09C23.5423 32.3653 37.8715 32.2506 39.0459 31.9151C39.1584 30.3543 39.2199 28.7637 38.98 27.0345C37.5216 27.0345 36.1884 27.0345 34.8561 27.0345C33.515 27.0345 32.1736 27.0661 30.8347 27.0254C29.5203 26.9843 28.1819 27.2297 26.7976 26.8034C26.7383 25.2569 26.5952 23.7654 26.9128 22.1487C30.0595 22.1487 33.0709 22.1487 36.2093 22.1487C36.2089 20.5074 36.2089 19.0098 36.2089 17.1954ZM111.922 32.087C111.704 31.4931 111.558 31.0404 111.374 30.6019C110.351 28.146 109.321 25.6928 108.291 23.2395C106.4 18.7428 104.481 14.2582 102.639 9.74207C102.239 8.76214 101.703 8.35874 100.644 8.44228C99.6087 8.52365 98.5582 8.50937 97.5199 8.44574C96.6226 8.39077 96.202 8.78422 95.8722 9.575C92.8747 16.7596 89.8406 23.9285 86.8274 31.1057C86.7035 31.4018 86.6734 31.7364 86.566 32.1947C88.3276 32.1947 89.9588 32.161 91.5886 32.2095C92.3743 32.2333 92.756 31.9034 93.0038 31.2079C93.3677 30.1886 93.8454 29.2082 94.1948 28.1841C94.4635 27.3981 94.9399 27.1432 95.7531 27.1588C97.9858 27.2007 100.22 27.2137 102.452 27.1523C103.408 27.1259 103.892 27.4886 104.199 28.3551C104.654 29.6445 105.208 30.901 105.684 32.0865C107.842 32.087 109.8 32.087 111.922 32.087ZM156.555 8.75002C156.555 16.6055 156.555 24.306 156.555 32.1709C158.509 32.1783 160.353 32.2752 162.268 32.1173C162.446 28.8052 162.191 25.6685 162.432 22.3738C165.486 22.3738 168.341 22.3738 171.304 22.3738C171.304 20.691 171.304 19.1986 171.304 17.5707C168.32 17.4084 165.412 17.6248 162.468 17.44C162.468 16.1428 162.468 15.0503 162.468 13.7938C166.483 13.6497 170.381 13.8462 174.334 13.6743C174.334 11.9209 174.334 10.3779 174.334 8.75002C168.384 8.75002 162.546 8.75002 156.555 8.75002ZM75.0433 32.1246C77.1246 32.2281 78.9744 32.235 80.9824 32.1328C80.9824 25.9538 80.9824 19.9677 80.9824 13.9262C83.4006 13.4649 85.752 14.0492 88.0816 13.5293C88.1117 11.8513 88.2871 10.3043 87.9778 8.76128C81.249 8.76128 74.6707 8.76128 67.9873 8.76128C67.9873 10.4 67.9873 11.9417 67.9873 13.5674C70.3361 14.031 72.6849 13.4346 75.0429 13.9591C75.0433 20.03 75.0433 25.9789 75.0433 32.1246ZM141.907 27.0627C138.024 26.9718 134.324 27.1137 130.449 26.9726C130.449 23.7701 130.458 20.7762 130.446 17.7828C130.433 14.7984 130.502 11.8114 130.398 8.76128C128.387 8.76128 126.579 8.76128 124.794 8.76128C124.417 10.3965 124.486 31.0309 124.85 32.0727C127.116 32.377 140.868 32.2553 141.907 31.9121C141.907 30.3626 141.907 28.8044 141.907 27.0627ZM151.409 8.77599C149.415 8.77599 147.604 8.77599 145.824 8.77599C145.407 10.4978 145.495 31.0036 145.906 32.087C147.703 32.087 149.51 32.087 151.409 32.087C151.409 24.2813 151.409 16.5869 151.409 8.77599ZM117.412 32.6029C119.357 32.5821 120.869 31.0313 120.829 29.0974C120.79 27.1765 119.22 25.7222 117.239 25.7711C115.36 25.8187 113.869 27.3384 113.882 29.1939C113.896 31.12 115.453 32.6224 117.412 32.6029Z" fill="#5C0048"/>
<path fill-rule="evenodd" clip-rule="evenodd" d="M184.16 26.8217C184.16 25.2891 184.16 23.8382 184.16 22.2398C187.272 22.2398 190.281 22.2398 193.427 22.2398C193.758 20.5712 193.6 19.0308 193.544 17.2852C191.942 17.2692 190.425 17.2467 188.907 17.2393C187.379 17.2311 185.853 17.2371 184.329 17.2371C183.897 16.0681 184.039 15.0604 184.161 14.0679C185.332 13.6667 194.536 13.5914 196.261 13.9784C196.261 18.2123 196.261 22.4722 196.261 26.727C195.217 27.1005 186.028 27.1918 184.16 26.8217Z" fill="#5C0048"/>
<path fill-rule="evenodd" clip-rule="evenodd" d="M101.532 22.4456C99.9226 22.4456 98.4149 22.4456 96.912 22.4456C96.8449 21.3752 97.97 18.2125 99.0645 16.3037C99.7664 17.017 101.293 20.7264 101.532 22.4456Z" fill="#5C0048"/>
</svg>
