<svg width="44" height="44" viewBox="0 0 44 44" fill="none" xmlns="http://www.w3.org/2000/svg">
<path d="M36.3401 13.5247L38.0653 11.7996C38.7357 11.1292 38.7357 10.0423 38.0653 9.37222C37.3949 8.70184 36.3083 8.70184 35.6379 9.37222L33.9128 11.0974C31.0184 8.68573 27.5013 7.22882 23.7496 6.88776V3.43314H25.409C26.357 3.43314 27.1254 2.6644 27.1254 1.7164C27.1254 0.768402 26.357 0 25.409 0H18.6572C17.7092 0 16.9408 0.768402 16.9408 1.7164C16.9408 2.6644 17.7092 3.43314 18.6572 3.43314H20.3165V6.88776C10.9251 7.74176 3.4375 15.6312 3.4375 25.4043C3.4375 35.6819 11.7543 44 22.0332 44C32.3105 44 40.6286 35.6832 40.6286 25.4043C40.6286 21.0141 39.1167 16.8565 36.3401 13.5247ZM22.0329 40.5669C13.6725 40.5669 6.8703 33.765 6.8703 25.4043C6.8703 17.0438 13.6725 10.242 22.0329 10.242C30.3937 10.242 37.1955 17.0438 37.1955 25.4043C37.1955 33.765 30.3937 40.5669 22.0329 40.5669ZM29.9878 17.4497C30.6582 18.1201 30.6582 19.207 29.9878 19.8771L23.2468 26.6181C22.5764 27.2885 21.4894 27.2885 20.8194 26.6181C20.149 25.9478 20.149 24.8608 20.8194 24.1907L27.5601 17.4497C28.2305 16.7793 29.3174 16.7793 29.9878 17.4497Z" fill="#FFD600"/>
</svg>
