<svg width="31" height="31" viewBox="0 0 31 31" fill="none" xmlns="http://www.w3.org/2000/svg">
    <g clip-path="url(#clip0)">
        <path d="M27.2583 24.67C27.1672 24.6109 26.4814 24.1304 25.7947 22.677C24.5336 20.008 24.2688 16.2481 24.2688 13.564C24.2688 13.5523 24.2686 13.5408 24.2682 13.5291C24.2544 9.98176 22.1303 6.92378 19.0906 5.55172V3.45335C19.0906 1.54915 17.544 0 15.6429 0H15.3572C13.4561 0 11.9095 1.54915 11.9095 3.45335V5.5516C8.85966 6.92808 6.73126 10.0017 6.73126 13.564C6.73126 16.2481 6.46655 20.0079 5.20542 22.677C4.51875 24.1304 3.83294 24.6108 3.74176 24.67C3.35777 24.8477 3.16844 25.2582 3.25678 25.6742C3.34596 26.0944 3.73867 26.384 4.16752 26.384H10.8245C10.8616 28.9355 12.9441 31 15.5001 31C18.0561 31 20.1385 28.9355 20.1757 26.384H26.8326C27.2614 26.384 27.6542 26.0944 27.7434 25.6742C27.8316 25.2582 27.6423 24.8477 27.2583 24.67ZM13.726 3.45335C13.726 2.55235 14.4578 1.81937 15.3573 1.81937H15.643C16.5425 1.81937 17.2742 2.55235 17.2742 3.45335V4.962C16.701 4.84351 16.1075 4.78114 15.4998 4.78114C14.8923 4.78114 14.2991 4.84345 13.7261 4.96182L13.726 3.45335ZM15.5001 29.1806C13.9457 29.1806 12.6777 27.9323 12.6409 26.3841H18.3592C18.3224 27.9323 17.0545 29.1806 15.5001 29.1806ZM19.1571 24.5646C19.1569 24.5646 6.23732 24.5646 6.23732 24.5646C6.39444 24.3197 6.55434 24.0425 6.71328 23.7292C7.93051 21.3289 8.54773 17.9089 8.54773 13.564C8.54773 9.72431 11.6664 6.60052 15.4998 6.60052C19.3331 6.60052 22.4518 9.72431 22.4518 13.567C22.4518 13.5782 22.452 13.5894 22.4524 13.6005C22.4559 17.9279 23.073 21.3357 24.2869 23.7292C24.4458 24.0426 24.6058 24.3197 24.7628 24.5646H19.1571Z" fill="#5C0048"/>
    </g>
    <defs>
        <clipPath id="clip0">
            <rect width="31" height="31" fill="white"/>
        </clipPath>
    </defs>
</svg>
