<svg width="48" height="33" viewBox="0 0 48 33" fill="none" xmlns="http://www.w3.org/2000/svg">
<path d="M17.3953 9.94385C17.1636 9.94385 16.9399 9.99548 16.7306 10.0972C13.7463 11.544 11.289 13.8215 9.62445 16.6835C9.42163 17.0316 9.36743 17.4371 9.47181 17.8256C9.57611 18.2137 9.82591 18.5381 10.175 18.7389C10.405 18.8718 10.667 18.942 10.9325 18.942C11.4722 18.942 11.9743 18.6541 12.2427 18.1911C13.6051 15.8497 15.6158 13.9858 18.0573 12.8008C18.4203 12.6246 18.6926 12.3183 18.8242 11.9383C18.9556 11.5583 18.9306 11.1506 18.754 10.7909C18.4997 10.2684 17.979 9.94385 17.3953 9.94385Z" fill="#FFD600"/>
<path d="M46.7527 23.8742C46.4666 23.5898 46.0869 23.4331 45.6834 23.4331H44.2865C43.9462 18.8959 42.0506 14.5618 38.9371 11.2117C35.8742 7.91585 31.7594 5.7063 27.3312 4.97507C27.3757 4.75721 27.3982 4.53519 27.3982 4.31256C27.3982 2.44915 25.8736 0.933105 23.9997 0.933105C22.1259 0.933105 20.6013 2.44915 20.6013 4.31256C20.6013 4.53519 20.6238 4.75721 20.6683 4.97507C16.24 5.70637 12.1253 7.91593 9.06244 11.2117C5.94891 14.5617 4.05328 18.8958 3.71302 23.4331H2.31609C1.48185 23.4331 0.803223 24.108 0.803223 24.9376V25.877C0.803223 27.4004 1.25273 28.8762 2.10308 30.1445C2.90972 31.3483 4.26006 32.067 5.71522 32.067H42.2843C43.7394 32.067 45.0901 31.348 45.8974 30.1436C46.7471 28.8745 47.1963 27.3991 47.1963 25.877V24.9376C47.1963 24.5364 47.0388 24.1587 46.7527 23.8742ZM6.74597 23.4331C7.51833 14.5896 15.0575 7.69209 23.9997 7.69209C32.942 7.69209 40.4812 14.5896 41.2534 23.4331H6.74597ZM23.9997 4.68328C23.7943 4.68328 23.6272 4.51704 23.6272 4.31279C23.6272 4.10853 23.7943 3.9423 23.9997 3.9423C24.2052 3.9423 24.3724 4.10853 24.3724 4.31279C24.3724 4.51704 24.2052 4.68328 23.9997 4.68328ZM42.2843 29.0582H5.71515C5.27393 29.0582 4.86449 28.8402 4.61994 28.4751C4.21125 27.8649 3.95157 27.166 3.86316 26.4422H44.1363C44.0477 27.1667 43.7878 27.8658 43.3789 28.4754C43.134 28.8404 42.7248 29.0582 42.2843 29.0582Z" fill="#FFD600"/>
</svg>
