<svg width="44" height="44" viewBox="0 0 44 44" fill="none" xmlns="http://www.w3.org/2000/svg">
<path d="M42.89 16.3953C42.3346 14.693 40.8186 13.593 39.028 13.593H29.0128L25.8585 4.01336C25.3 2.31747 23.7858 1.22168 22.001 1.22168L21.984 1.22177C20.1912 1.22881 18.679 2.33646 18.1317 4.04378L15.0705 13.593H4.97205C3.17682 13.593 1.65976 14.6966 1.1071 16.4046C0.554349 18.1126 1.13735 19.8958 2.59236 20.9474L10.7619 26.8527L7.61772 36.4016C7.05647 38.1059 7.62967 39.8916 9.07806 40.9508C9.79057 41.4721 10.6197 41.7476 11.4759 41.7476H11.476C12.3243 41.7474 13.1472 41.4766 13.8558 40.9644L22.0417 35.0475L30.1284 40.9529C30.84 41.4726 31.6683 41.7473 32.5235 41.7474C32.5236 41.7474 32.5237 41.7474 32.5238 41.7474C33.371 41.7474 34.1932 41.4772 34.9014 40.9662C36.3538 39.9178 36.9392 38.138 36.3925 36.4321L33.3213 26.8526L41.4236 20.9357C42.8698 19.8798 43.4453 18.0976 42.89 16.3953ZM10.7342 37.4277L14.6291 25.5992L4.51452 18.2884C4.11379 17.9987 4.16355 17.6167 4.22886 17.4148C4.29426 17.2128 4.47774 16.8741 4.97214 16.8741H17.4643L21.2563 5.04547C21.407 4.57548 21.7852 4.50363 21.9995 4.50277C22.2109 4.50277 22.5883 4.57255 22.7422 5.03971L26.639 16.8742H39.028C39.5211 16.8742 39.7051 17.2119 39.7708 17.4129C39.8364 17.6143 39.887 17.9953 39.4887 18.2861L29.4741 25.5993L33.2679 37.4339C33.4186 37.9038 33.153 38.1817 32.9811 38.3058C32.9294 38.3432 32.7428 38.465 32.513 38.465C32.3596 38.465 32.2124 38.4121 32.0633 38.3031L22.0515 30.9919L11.9337 38.3053C11.785 38.4128 11.6387 38.465 11.4864 38.465C11.2549 38.465 11.067 38.3408 11.0149 38.3026C10.8436 38.1774 10.5795 37.8972 10.7342 37.4277Z" fill="#FFD600"/>
</svg>
