<svg width="11" height="11" viewBox="0 0 11 11" fill="none" xmlns="http://www.w3.org/2000/svg">
<path fill="currentColor" fill-rule="evenodd" clip-rule="evenodd" d="M0.146877 5.24654C1.25031 3.3399 3.30145 2.15552 5.5 2.15552C7.69868 2.15552 9.74969 3.33977 10.8534 5.24654L11 5.50008L10.8533 5.75376C9.74983 7.66026 7.69868 8.84465 5.5 8.84465C3.30145 8.84465 1.25031 7.6604 0.146746 5.75376L0 5.50008L0.146877 5.24654ZM5.44502 7.29834C6.52696 7.29834 7.4073 6.41813 7.4073 5.33606C7.4073 4.25413 6.52696 3.37378 5.44502 3.37378C4.36308 3.37378 3.48274 4.25413 3.48274 5.33606C3.48274 6.41813 4.36308 7.29834 5.44502 7.29834ZM9.81997 5.50008C9.35323 4.7918 8.72379 4.21892 7.9989 3.81771C8.2647 4.26296 8.42028 4.78112 8.42028 5.33606C8.42028 6.12847 8.10714 6.84677 7.60072 7.38075C8.49306 6.98152 9.26977 6.33507 9.81997 5.50008ZM3.20613 7.28872C2.74928 6.76568 2.47015 6.08351 2.47015 5.33593C2.47015 4.82199 2.60095 4.33838 2.83128 3.9162C2.17785 4.31069 1.60972 4.8477 1.1803 5.49995C1.69015 6.27389 2.395 6.88579 3.20613 7.28872ZM4.67292 5.29757C4.67292 5.75428 5.04341 6.12451 5.49987 6.12451C5.95672 6.12451 6.32694 5.75415 6.32694 5.29757C6.32694 4.84072 5.95659 4.47049 5.49987 4.47049C5.04328 4.47049 4.67292 4.84072 4.67292 5.29757Z" />
</svg>
