<svg width="35" height="35" viewBox="0 0 35 35" fill="none" xmlns="http://www.w3.org/2000/svg">
    <rect x="0.569336" y="0.5" width="33.694" height="33.694" rx="7.5" stroke="white"/>
    <g clip-path="url(#clip0)">
        <path d="M5.38064 17.7964L10.7606 20.3558C10.9686 20.4538 11.2143 20.4468 11.4132 20.3357L16.2019 17.6783L13.3034 20.1301C13.1558 20.2552 13.0715 20.4337 13.0715 20.6218V26.5937C13.0715 27.2237 13.9139 27.4888 14.309 26.9883L16.6346 24.0369L22.3857 27.1633C22.7891 27.3847 23.3061 27.1624 23.3996 26.7223L26.9865 9.65982C27.0937 9.14707 26.5593 8.72882 26.0625 8.91957L5.43748 16.5977C4.88381 16.8042 4.84806 17.5436 5.38064 17.7964ZM25.3915 10.5786L22.2391 25.5734L16.7895 22.6107C16.4925 22.4488 16.1102 22.5206 15.8994 22.7866L14.4465 24.6302V20.9167L22.2849 14.2877C22.9055 13.7636 22.1923 12.8317 21.4837 13.2289L11.0429 19.0232L7.38356 17.2828L25.3915 10.5786Z" fill="white"/>
    </g>
    <defs>
        <clipPath id="clip0">
            <rect width="22" height="21" fill="white" transform="translate(5 8)"/>
        </clipPath>
    </defs>
</svg>
