<svg width="25" height="25" viewBox="0 0 25 25" fill="none" xmlns="http://www.w3.org/2000/svg">
<rect width="25" height="25" transform="matrix(-1 0 0 1 25 0)" fill="white"/>
<path d="M2.04446 3.06833C3.33756 1.67843 5.14953 0.887599 7.04793 0.884667C8.94785 0.886866 10.7617 1.67728 12.0568 3.06744L12.4982 3.53385L12.9396 3.06744C15.5094 0.301619 19.8348 0.142782 22.6006 2.7126C22.7231 2.82652 22.8415 2.94483 22.9554 3.06744C25.6815 6.00786 25.6815 10.5521 22.9554 13.4926L13.1468 23.8364C12.8075 24.1946 12.242 24.21 11.8837 23.8706C11.872 23.8595 11.8606 23.8481 11.8495 23.8364L2.04441 13.4926C-0.681469 10.5525 -0.681469 6.00844 2.04446 3.06833ZM3.3373 12.2622H3.33819L12.4982 21.9234L21.659 12.2622C23.7416 10.0155 23.7416 6.54364 21.659 4.29689C19.7678 2.24708 16.5729 2.11856 14.5231 4.00979C14.4235 4.10161 14.3278 4.19736 14.236 4.29689L13.1468 5.44591C12.7879 5.80254 12.2084 5.80254 11.8495 5.44591L10.7603 4.29778C8.86911 2.24797 5.6742 2.11945 3.6244 4.01068C3.52488 4.1025 3.42913 4.19825 3.3373 4.29778C1.23662 6.54809 1.22122 10.0263 3.3373 12.2622Z" fill="#FFD600"/>
</svg>
