<svg width="36" height="35" viewBox="0 0 36 35" fill="none" xmlns="http://www.w3.org/2000/svg">
<rect x="1.26953" y="0.5" width="33.694" height="33.694" rx="7.5" stroke="white"/>
<path d="M7.45322 24.7785C9.58263 26.1297 12.0609 26.8437 14.6196 26.8437C18.3667 26.8437 21.8004 25.4043 24.2892 22.7909C26.6707 20.2897 27.9807 16.9288 27.9156 13.5181C28.8183 12.7457 29.8801 11.2708 29.8801 9.83329C29.8801 9.28225 29.2821 8.93246 28.7972 9.21325C27.9491 9.71158 27.1757 9.84192 26.3803 9.61862C24.7559 8.03546 22.3381 7.70196 20.3006 8.80021C18.5201 9.75854 17.5301 11.5123 17.6192 13.429C14.611 13.0619 11.8318 11.5535 9.89409 9.20942C9.57593 8.82704 8.97218 8.87208 8.71918 9.30525C7.78576 10.9037 7.79534 12.7562 8.60705 14.2522C8.22084 14.3202 7.98222 14.6451 7.98222 14.9968C7.98222 16.5004 8.6588 17.8823 9.74843 18.8253C9.54526 19.0208 9.47818 19.3112 9.56443 19.57C10.0436 21.0094 11.1284 22.1345 12.4845 22.698C11.0096 23.4023 9.37851 23.6371 7.92663 23.4589C7.1753 23.3573 6.80443 24.3674 7.45322 24.7785ZM14.8161 22.9442C15.3537 22.5312 15.0681 21.6706 14.3935 21.6562C13.2051 21.6313 12.1232 21.0458 11.4495 20.1248C11.7743 20.1037 12.1107 20.0539 12.4308 19.9677C13.1601 19.7702 13.1256 18.718 12.3848 18.5695C11.0403 18.2992 9.98513 17.3198 9.58934 16.0586C9.95063 16.1477 10.3186 16.1976 10.6857 16.2043C11.4131 16.2081 11.6881 15.2757 11.0949 14.8856C9.75801 14.0049 9.1878 12.4495 9.56538 10.9871C11.8999 13.3523 15.0672 14.7773 18.4175 14.9383C18.8976 14.968 19.258 14.5167 19.1526 14.0595C18.6973 12.0863 19.7994 10.7035 20.983 10.0662C22.1541 9.43367 24.0343 9.23625 25.4756 10.7485C25.904 11.1999 27.3492 11.2171 28.0842 11.0456C27.7546 11.6666 27.2476 12.256 26.7732 12.5875C26.571 12.7294 26.455 12.9651 26.4675 13.2114C26.6218 16.3595 25.4488 19.4895 23.2494 21.7981C21.0338 24.124 17.97 25.4052 14.6206 25.4052C13.2885 25.4052 11.9823 25.1887 10.748 24.7708C12.2238 24.4852 13.6258 23.8604 14.8161 22.9442Z" fill="white"/>
</svg>
