<svg width="36" height="35" viewBox="0 0 36 35" fill="none" xmlns="http://www.w3.org/2000/svg">
<rect x="0.869141" y="0.5" width="33.694" height="33.694" rx="7.5" stroke="white"/>
<g clip-path="url(#clip0)">
<path d="M17.651 26.3125C21.2677 26.3125 19.9781 24.0229 20.2573 23.3646C20.2531 22.8729 20.249 22.4 20.2656 22.1125C20.4948 22.1771 21.0354 22.451 22.1521 23.5365C23.876 25.276 24.3167 26.3125 25.7094 26.3125H28.2729C29.0854 26.3125 29.5083 25.976 29.7198 25.6937C29.924 25.4208 30.124 24.9417 29.9052 24.1958C29.3333 22.4 25.9979 19.299 25.7906 18.9719C25.8219 18.9115 25.8719 18.8312 25.8979 18.7896H25.8958C26.5542 17.9198 29.0667 14.1552 29.4365 12.649C29.4375 12.6469 29.4385 12.6437 29.4385 12.6406C29.6385 11.9531 29.4552 11.5073 29.2656 11.2552C28.9802 10.8781 28.526 10.6875 27.9125 10.6875H25.349C24.4906 10.6875 23.8396 11.1198 23.5104 11.9083C22.9594 13.3094 21.4115 16.1906 20.251 17.2104C20.2156 15.7656 20.2396 14.6625 20.2583 13.8427C20.2958 12.2437 20.4167 10.6875 18.7573 10.6875H14.7281C13.6885 10.6875 12.6937 11.8229 13.7708 13.1708C14.7125 14.3521 14.1094 15.0104 14.3125 18.2875C13.5208 17.4385 12.1125 15.1458 11.1167 12.2156C10.8375 11.4229 10.4146 10.6885 9.22396 10.6885H6.66042C5.62083 10.6885 5 11.2552 5 12.2042C5 14.3354 9.71771 26.3125 17.651 26.3125ZM9.22396 12.251C9.45 12.251 9.47292 12.251 9.64062 12.7271C10.6604 15.7302 12.9479 20.174 14.6187 20.174C15.874 20.174 15.874 18.8875 15.874 18.4031L15.8729 14.5469C15.8042 13.2708 15.3396 12.6354 15.0344 12.25L18.6885 12.2542C18.6906 12.2719 18.6677 16.5198 18.699 17.549C18.699 19.0104 19.8594 19.8479 21.6708 18.0146C23.5823 15.8573 24.9042 12.6323 24.9573 12.501C25.0354 12.3135 25.1031 12.25 25.349 12.25H27.9125H27.9229C27.9219 12.2531 27.9219 12.2562 27.9208 12.2594C27.6865 13.3531 25.3729 16.8385 24.599 17.9208C24.5865 17.9375 24.575 17.9552 24.5635 17.9729C24.2229 18.5292 23.9458 19.1437 24.6104 20.0083H24.6115C24.6719 20.0812 24.8292 20.2521 25.0583 20.4896C25.7708 21.225 28.2146 23.7396 28.4312 24.7396C28.2875 24.7625 28.1313 24.7458 25.7094 24.751C25.1938 24.751 24.7906 23.9802 23.2521 22.4281C21.8687 21.0823 20.9708 20.5323 20.1531 20.5323C18.5656 20.5323 18.6812 21.8208 18.6958 23.3792C18.701 25.0687 18.6906 24.5344 18.7021 24.6406C18.6094 24.6771 18.3438 24.75 17.651 24.75C11.0417 24.75 6.7375 14.2594 6.57187 12.2542C6.62917 12.249 7.41771 12.2521 9.22396 12.251Z" fill="white"/>
</g>
<defs>
<clipPath id="clip0">
<rect width="25" height="25" fill="white" transform="translate(5 6)"/>
</clipPath>
</defs>
</svg>
