<svg width="36" height="35" viewBox="0 0 36 35" fill="none" xmlns="http://www.w3.org/2000/svg">
    <rect x="1.2793" y="0.5" width="33.694" height="33.694" rx="7.5" stroke="white"/>
    <g clip-path="url(#clip0)">
        <path d="M23.7551 34.9473H19.5833C18.8865 34.9473 18.3197 34.3598 18.3197 33.6376V23.885H15.8857C15.1889 23.885 14.6221 23.2973 14.6221 22.5753V18.3963C14.6221 17.6741 15.1889 17.0866 15.8857 17.0866H18.3197V14.9939C18.3197 12.9189 18.9483 11.1536 20.1374 9.88896C21.332 8.6186 23.0013 7.94727 24.9649 7.94727L28.1466 7.95262C28.8422 7.95386 29.4081 8.54135 29.4081 9.26233V13.1424C29.4081 13.8646 28.8414 14.4521 28.1448 14.4521L26.0026 14.453C25.3493 14.453 25.183 14.5887 25.1474 14.6303C25.0888 14.6993 25.019 14.8944 25.019 15.4331V17.0864H27.9838C28.207 17.0864 28.4232 17.1434 28.6091 17.251C29.01 17.4831 29.2592 17.9221 29.2592 18.3965L29.2576 22.5755C29.2576 23.2973 28.6908 23.8848 27.9939 23.8848H25.019V33.6376C25.019 34.3598 24.452 34.9473 23.7551 34.9473ZM19.8469 33.3644H23.4916V23.1764C23.4916 22.6941 23.8702 22.3019 24.3353 22.3019H27.7304L27.7318 18.6694H24.3351C23.87 18.6694 23.4916 18.2772 23.4916 17.795V15.4331C23.4916 14.8147 23.5522 14.1114 24.0026 13.5828C24.5468 12.9438 25.4044 12.8701 26.0022 12.8701L27.8808 12.8693V9.53506L24.9638 9.53012C21.808 9.53012 19.8469 11.6238 19.8469 14.9939V17.795C19.8469 18.277 19.4684 18.6694 19.0034 18.6694H16.1493V22.3019H19.0034C19.4684 22.3019 19.8469 22.6941 19.8469 23.1764V33.3644ZM28.1436 9.53548H28.1438H28.1436Z" fill="white"/>
    </g>
    <defs>
        <clipPath id="clip0">
            <rect width="26" height="27" fill="white" transform="translate(9 8)"/>
        </clipPath>
    </defs>
</svg>
